# xmcd CD database file
# Copyright (C) 1993-1996 Ti Kan
#
# Track frame offsets:
#  150
#  19437
#  40485
#  59089
#  74312
#  92555
#  112382
#  127597
#  147062
#  163480
#  177530
#  196410
#  213842
#  233732
#  251385
#  271980
#  287265
#  308227
#
# Disc length: 4299 seconds
#
# Revision: 2
# Processed by: cddbd v1.5.1PL0 Copyright (c) Steve Scherf et al.
# Submitted via: Advanced CD Ripper Pro 2.0
#
DISCID=0f10c912
DTITLE=Various Artist - MAX 4
DYEAR=1998
DGENRE=Top 40
TTITLE0=Celine Dion - My Heart Will Go On
TTITLE1=Savage Garden - Truly Madly Deeply
TTITLE2=Natalie Imbruglia - Torn
TTITLE3='N Sync - I Want You Back
TTITLE4=Brandy and Monica - The Boy Is Mine
TTITLE5=The Corrs - Dreams
TTITLE6=Jennifer Paige - Crush
TTITLE7=OTT - All Out Of Love
TTITLE8=Trademark - I'll Be The One
TTITLE9=Steps - Last Thing On My Mind
TTITLE10=Five - When The Lights Go Out
TTITLE11=Will Smith - Gettin' Jiggy Wit It
TTITLE12=Maria Montell - And So The Story Goes (di  da di)
TTITLE13=Cleopatra - Cleopatra's Theme
TTITLE14=Eric Clapton - My Father's Eyes
TTITLE15=Jimmy Ray - Are You Jimmy Ray?
TTITLE16=Ricky Martin - The Cup Of Life (spanglish Version)
TTITLE17=Sweetbox - Don't Go Away
EXTD=
EXTT0=
EXTT1=
EXTT2=
EXTT3=
EXTT4=
EXTT5=
EXTT6=
EXTT7=
EXTT8=
EXTT9=
EXTT10=
EXTT11=
EXTT12=
EXTT13=
EXTT14=
EXTT15=
EXTT16=
EXTT17=
PLAYORDER=
